<?xml version="1.0" encoding="UTF-8" standalone="no"?>
<svg
   data-v-fde0c5aa=""
   viewBox="0 0 382 53"
   class="iconAboveSlogan"
   version="1.1"
   id="svg26"
   sodipodi:docname="logo.svg"
   width="382"
   height="53"
   inkscape:version="1.1.1 (3bf5ae0d25, 2021-09-20)"
   xmlns:inkscape="http://www.inkscape.org/namespaces/inkscape"
   xmlns:sodipodi="http://sodipodi.sourceforge.net/DTD/sodipodi-0.dtd"
   xmlns:xlink="http://www.w3.org/1999/xlink"
   xmlns="http://www.w3.org/2000/svg"
   xmlns:svg="http://www.w3.org/2000/svg">
  <sodipodi:namedview
     id="namedview28"
     pagecolor="#ffffff"
     bordercolor="#666666"
     borderopacity="1.0"
     inkscape:pageshadow="2"
     inkscape:pageopacity="0.0"
     inkscape:pagecheckerboard="0"
     showgrid="false"
     showguides="true"
     inkscape:guide-bbox="true"
     inkscape:zoom="2.91"
     inkscape:cx="146.04811"
     inkscape:cy="70.446735"
     inkscape:window-width="1920"
     inkscape:window-height="996"
     inkscape:window-x="-8"
     inkscape:window-y="-8"
     inkscape:window-maximized="1"
     inkscape:current-layer="svg26">
    <sodipodi:guide
       position="143.38488,32.810997"
       orientation="0,-1"
       id="guide32834" />
    <sodipodi:guide
       position="139.73368,13.996564"
       orientation="0,-1"
       id="guide32836" />
    <sodipodi:guide
       position="109.96564,6.2646048"
       orientation="0,-1"
       id="guide32838" />
    <sodipodi:guide
       position="122.68041,45.439863"
       orientation="0,-1"
       id="guide32840" />
  </sodipodi:namedview>
  <!---->
  <defs
     data-v-fde0c5aa=""
     id="defs2">
    <rect
       x="206.18558"
       y="94.501717"
       width="184.87973"
       height="40.206184"
       id="rect5108" />
    <!---->
    <linearGradient
       inkscape:collect="always"
       xlink:href="#0a8ec2f5-8e4c-49ea-94d9-1aa2e987f009"
       id="linearGradient28183"
       gradientTransform="scale(0.95097465,1.0515527)"
       x1="5.2346296"
       y1="8.1175194"
       x2="228.71272"
       y2="8.1175194"
       gradientUnits="userSpaceOnUse" />
    <linearGradient
       inkscape:collect="always"
       xlink:href="#0a8ec2f5-8e4c-49ea-94d9-1aa2e987f009"
       id="linearGradient28185"
       gradientTransform="scale(0.95097465,1.0515527)"
       x1="5.2346296"
       y1="8.1175194"
       x2="228.71272"
       y2="8.1175194"
       gradientUnits="userSpaceOnUse" />
  </defs>
  <defs
     data-v-fde0c5aa=""
     id="defs6">
    <!---->
  </defs>
  <defs
     data-v-fde0c5aa=""
     id="defs16">
    <linearGradient
       data-v-fde0c5aa=""
       gradientTransform="rotate(25)"
       id="0a8ec2f5-8e4c-49ea-94d9-1aa2e987f009"
       x1="0"
       y1="0"
       x2="1"
       y2="0">
      <stop
         data-v-fde0c5aa=""
         offset="0%"
         stop-color="#EA1F59"
         stop-opacity="1"
         id="stop11" />
      <stop
         data-v-fde0c5aa=""
         offset="100%"
         stop-color="#FA9169"
         stop-opacity="1"
         id="stop13" />
    </linearGradient>
  </defs>
  <g
     data-v-fde0c5aa=""
     id="d198cab2-8cfc-4285-8167-c466766b5eca"
     stroke="none"
     fill="url(#0a8ec2f5-8e4c-49ea-94d9-1aa2e987f009)"
     transform="matrix(0.16670394,0,0,0.16670394,146.65681,6.1371532)"
     style="fill:url(#linearGradient28185)">
    <path
       d="M 113.793,8.536 4.978,66.264 V 185.806 L 111.75,243.535 217.5,185.806 V 66.264 Z M 98.467,190.569 50.446,164.209 V 89.046 L 98.467,117.35 Z M 109.58488,103.23669 67.931491,79.310509 114.248,56.229 156.285,79.897 Z M 173.055,162.006 116.645,191.381 V 117.35 L 144.62135,103.62058 173.055,89.339 Z"
       id="path18"
       sodipodi:nodetypes="ccccccccccccccccccccccc"
       style="fill:url(#linearGradient28183)" />
  </g>
  <defs
     data-v-fde0c5aa=""
     id="defs21">
    <!---->
  </defs>
  <g
     aria-label="mobject"
     id="text13650"
     style="font-size:40px;font-family:'Futura Lt BT';-inkscape-font-specification:'Futura Lt BT, Normal'">
    <path
       d="M 11.447404,38.187279 H 9.0450606 V 20.86306 h 2.4023434 v 2.714844 q 0.859375,-1.640625 2.265625,-2.5 1.40625,-0.859375 3.242188,-0.859375 1.894531,0 3.222656,0.878906 1.347656,0.859375 2.070313,2.539062 1.035156,-1.71875 2.539062,-2.558593 1.503906,-0.859375 3.496094,-0.859375 2.753906,0 4.335937,1.679687 1.582032,1.660156 1.582032,4.570313 v 11.71875 H 31.798967 V 27.42556 q 0,-2.539063 -1.054688,-3.828125 -1.035156,-1.289063 -3.105468,-1.289063 -2.480469,0 -3.652344,1.621094 -1.152344,1.621094 -1.152344,5.136719 v 9.121094 H 20.451311 V 27.42556 q 0,-2.65625 -0.996094,-3.886719 -0.996094,-1.230469 -3.085938,-1.230469 -2.539062,0 -3.730468,1.640625 -1.191407,1.640625 -1.191407,5.117188 z"
       id="path1796" />
    <path
       d="m 48.556779,36.702904 q 2.851563,0 4.824219,-2.050782 1.992188,-2.070312 1.992188,-5.058593 0,-3.027344 -1.972657,-5.078125 -1.972656,-2.050782 -4.84375,-2.050782 -2.851562,0 -4.824218,2.050782 -1.972657,2.050781 -1.972657,5.078125 0,2.988281 1.972657,5.058593 1.972656,2.050782 4.824218,2.050782 z m -0.07813,2.246093 q -1.855468,0 -3.554687,-0.742187 -1.699219,-0.722656 -3.085938,-2.089844 -1.308593,-1.289062 -1.992187,-2.96875 -0.683594,-1.679687 -0.683594,-3.59375 0,-1.894531 0.703125,-3.59375 0.703125,-1.699219 2.011719,-3.007812 1.328125,-1.328125 3.027344,-2.03125 1.699218,-0.703125 3.574218,-0.703125 1.914063,0 3.632813,0.703125 1.738281,0.703125 3.085937,2.03125 1.347657,1.328125 2.050782,3.027343 0.722656,1.699219 0.722656,3.574219 0,1.875 -0.703125,3.574219 -0.703125,1.679687 -2.03125,2.988281 -1.367188,1.367188 -3.125,2.089844 -1.738281,0.742187 -3.632813,0.742187 z"
       id="path1798" />
    <path
       d="m 76.974748,29.710716 q 0,-3.398437 -1.582031,-5.332031 -1.582031,-1.953125 -4.296875,-1.953125 -2.714844,0 -4.257813,1.835937 -1.542968,1.816407 -1.542968,5 0,3.476563 1.5625,5.46875 1.582031,1.972657 4.316406,1.972657 2.792969,0 4.296875,-1.796875 1.503906,-1.816407 1.503906,-5.195313 z M 65.334123,38.187279 H 62.931779 V 7.9138412 h 2.402344 V 24.027122 q 0.878906,-1.875 2.460938,-2.832031 1.601562,-0.976562 3.808593,-0.976562 3.554688,0 5.800782,2.636718 2.246093,2.617188 2.246093,6.777344 0,4.199219 -2.285156,6.757813 -2.265625,2.558593 -5.996094,2.558593 -2.089843,0 -3.632812,-0.996093 -1.542969,-0.996094 -2.402344,-2.929688 z"
       id="path1800" />
    <path
       d="m 84.123186,14.105247 q 0,-0.761718 0.546875,-1.289062 0.546875,-0.546875 1.308593,-0.546875 0.761719,0 1.308594,0.546875 0.566406,0.527344 0.566406,1.289062 0,0.78125 -0.546875,1.308594 -0.527343,0.527344 -1.328125,0.527344 -0.78125,0 -1.328125,-0.527344 -0.527343,-0.527344 -0.527343,-1.308594 z m 0.605468,32.792969 V 20.86306 h 2.480469 v 26.035156 z"
       id="path1802" />
    <path
       d="m 105.80287,27.542747 q -0.17578,-2.382812 -1.58203,-3.691406 -1.40625,-1.308594 -3.80859,-1.308594 -2.187502,0 -3.671877,1.367188 -1.464844,1.367187 -1.699219,3.632812 z m 2.85157,2.050782 H 94.884904 q 0.09766,3.359375 1.679688,5.273437 1.582031,1.914063 4.238278,1.914063 1.91407,0 3.35938,-1.035157 1.44531,-1.035156 2.40234,-3.125 l 2.20703,1.210938 q -1.32812,2.636719 -3.26172,3.886719 -1.91406,1.230468 -4.70703,1.230468 -3.808591,0 -6.171872,-2.539062 -2.34375,-2.558594 -2.34375,-6.699219 0,-4.257812 2.324219,-6.875 2.34375,-2.617187 6.113283,-2.617187 3.59375,0 5.76172,2.421875 2.16797,2.402343 2.16797,6.425781 z"
       id="path1804" />
    <path
       d="m 127.131,24.027122 q -1.21094,-0.839843 -2.57813,-1.25 -1.36718,-0.429687 -2.8125,-0.429687 -3.22265,0 -5.13672,2.070312 -1.91406,2.050782 -1.91406,5.488282 0,3.046875 1.97266,5.019531 1.99219,1.972656 5.07812,1.972656 1.40625,0 2.83203,-0.488281 1.44532,-0.488281 2.83204,-1.464844 v 2.636719 q -1.26954,0.722656 -2.8125,1.074219 -1.54297,0.371093 -3.30079,0.371093 -3.96484,0 -6.5039,-2.597656 -2.53906,-2.617187 -2.53906,-6.679687 0,-4.238282 2.63671,-6.875 2.65625,-2.65625 6.89454,-2.65625 1.5625,0 2.92968,0.3125 1.38672,0.292968 2.46094,0.859375 z"
       id="path1806" />
    <path
       d="m 132.40444,22.913841 h -3.1836 V 20.86306 h 3.1836 v -7.109375 h 2.36328 v 7.109375 h 3.47656 v 2.050781 h -3.47656 v 15.273438 h -2.36328 z"
       id="path1808" />
  </g>
  <g
     aria-label="commands"
     id="text13650-6"
     style="font-size:40px;line-height:1.25;font-family:'Futura Lt BT';-inkscape-font-specification:'Futura Lt BT, Normal'">
    <path
       d="m 207.11063,24.026604 q -1.21094,-0.839844 -2.57813,-1.25 -1.36719,-0.429688 -2.8125,-0.429688 -3.22266,0 -5.13672,2.070313 -1.91406,2.050781 -1.91406,5.488281 0,3.046875 1.97266,5.019531 1.99218,1.972656 5.07812,1.972656 1.40625,0 2.83203,-0.488281 1.44531,-0.488281 2.83203,-1.464844 v 2.636719 q -1.26953,0.722656 -2.8125,1.074219 -1.54297,0.371094 -3.30078,0.371094 -3.96484,0 -6.5039,-2.597657 -2.53907,-2.617187 -2.53907,-6.679687 0,-4.238281 2.63672,-6.875 2.65625,-2.65625 6.89453,-2.65625 1.5625,0 2.92969,0.3125 1.38672,0.292969 2.46094,0.859375 z"
       id="path1761" />
    <path
       d="m 219.82547,36.702385 q 2.85156,0 4.82422,-2.050781 1.99219,-2.070313 1.99219,-5.058594 0,-3.027344 -1.97266,-5.078125 -1.97266,-2.050781 -4.84375,-2.050781 -2.85156,0 -4.82422,2.050781 -1.97266,2.050781 -1.97266,5.078125 0,2.988281 1.97266,5.058594 1.97266,2.050781 4.82422,2.050781 z m -0.0781,2.246094 q -1.85546,0 -3.55468,-0.742188 -1.69922,-0.722656 -3.08594,-2.089844 -1.30859,-1.289062 -1.99219,-2.96875 -0.68359,-1.679687 -0.68359,-3.59375 0,-1.894531 0.70312,-3.59375 0.70313,-1.699218 2.01172,-3.007812 1.32813,-1.328125 3.02735,-2.03125 1.69921,-0.703125 3.57421,-0.703125 1.91407,0 3.63282,0.703125 1.73828,0.703125 3.08593,2.03125 1.34766,1.328125 2.05079,3.027344 0.72265,1.699218 0.72265,3.574218 0,1.875 -0.70312,3.574219 -0.70313,1.679688 -2.03125,2.988281 -1.36719,1.367188 -3.125,2.089844 -1.73828,0.742188 -3.63282,0.742188 z"
       id="path1763" />
    <path
       d="m 236.60281,38.18676 h -2.40234 V 20.862541 h 2.40234 v 2.714844 q 0.85938,-1.640625 2.26563,-2.5 1.40625,-0.859375 3.24219,-0.859375 1.89453,0 3.22265,0.878906 1.34766,0.859375 2.07031,2.539063 1.03516,-1.71875 2.53907,-2.558594 1.5039,-0.859375 3.49609,-0.859375 2.75391,0 4.33594,1.679687 1.58203,1.660157 1.58203,4.570313 v 11.71875 h -2.40234 V 27.425041 q 0,-2.539062 -1.05469,-3.828125 -1.03516,-1.289062 -3.10547,-1.289062 -2.48047,0 -3.65234,1.621093 -1.15235,1.621094 -1.15235,5.136719 v 9.121094 h -2.38281 V 27.425041 q 0,-2.65625 -0.99609,-3.886719 -0.9961,-1.230468 -3.08594,-1.230468 -2.53906,0 -3.73047,1.640625 -1.19141,1.640625 -1.19141,5.117187 z"
       id="path1765" />
    <path
       d="m 268.16531,38.18676 h -2.40234 V 20.862541 h 2.40234 v 2.714844 q 0.85938,-1.640625 2.26563,-2.5 1.40625,-0.859375 3.24219,-0.859375 1.89453,0 3.22265,0.878906 1.34766,0.859375 2.07031,2.539063 1.03516,-1.71875 2.53907,-2.558594 1.5039,-0.859375 3.49609,-0.859375 2.75391,0 4.33594,1.679687 1.58203,1.660157 1.58203,4.570313 v 11.71875 h -2.40234 V 27.425041 q 0,-2.539062 -1.05469,-3.828125 -1.03516,-1.289062 -3.10547,-1.289062 -2.48047,0 -3.65234,1.621093 -1.15235,1.621094 -1.15235,5.136719 v 9.121094 h -2.38281 V 27.425041 q 0,-2.65625 -0.99609,-3.886719 -0.9961,-1.230468 -3.08594,-1.230468 -2.53906,0 -3.73047,1.640625 -1.19141,1.640625 -1.19141,5.117187 z"
       id="path1767" />
    <path
       d="m 298.43875,29.710197 q 0,3.359375 1.50391,5.175782 1.52343,1.816406 4.33593,1.816406 2.73438,0 4.29688,-1.972656 1.58203,-1.992188 1.58203,-5.46875 0,-3.183594 -1.5625,-5 -1.5625,-1.835938 -4.27734,-1.835938 -2.71485,0 -4.29688,1.953125 -1.58203,1.933594 -1.58203,5.332031 z m 11.67969,8.476563 v -3.164063 q -0.85938,1.914063 -2.42188,2.929688 -1.54297,0.996094 -3.65234,0.996094 -3.73047,0 -6.01563,-2.558594 -2.26562,-2.558594 -2.26562,-6.757813 0,-4.160156 2.24609,-6.777343 2.2461,-2.636719 5.80078,-2.636719 2.20704,0 3.8086,0.976562 1.62109,0.957032 2.5,2.832032 v -3.164063 h 2.40234 V 38.18676 Z"
       id="path1769" />
    <path
       d="M 318.96609,38.18676 V 20.862541 h 2.28516 v 2.675781 q 1.05469,-1.660156 2.57813,-2.480468 1.54296,-0.839844 3.53515,-0.839844 2.94922,0 4.58985,1.640625 1.64062,1.640625 1.64062,4.570312 V 38.18676 h -2.44141 V 27.503166 q 0,-2.597656 -1.09375,-3.847656 -1.07421,-1.269531 -3.33984,-1.269531 -2.75391,0 -4.0625,1.640625 -1.28906,1.621093 -1.28906,5.117187 v 9.042969 z"
       id="path1771" />
    <path
       d="m 340.99734,29.710197 q 0,3.359375 1.50391,5.175782 1.52344,1.816406 4.33594,1.816406 2.71484,0 4.27734,-1.972656 1.5625,-1.992188 1.5625,-5.46875 0,-3.183594 -1.54297,-5 -1.54297,-1.835938 -4.25781,-1.835938 -2.71484,0 -4.29687,1.953125 -1.58204,1.933594 -1.58204,5.332031 z m 11.64063,8.476563 v -3.164063 q -0.85938,1.933594 -2.40234,2.929688 -1.54297,0.996094 -3.63282,0.996094 -3.73047,0 -6.01562,-2.558594 -2.26563,-2.558594 -2.26563,-6.757813 0,-4.160156 2.2461,-6.777343 2.24609,-2.636719 5.80078,-2.636719 2.20703,0 3.78906,0.976562 1.60156,0.957032 2.48047,2.832032 V 7.9133224 h 2.44141 V 38.18676 Z"
       id="path1773" />
    <path
       d="m 359.47391,35.100822 2.28515,-1.308593 q 0.56641,1.445312 1.64063,2.1875 1.07422,0.722656 2.63672,0.722656 1.52343,0 2.42187,-0.761719 0.89844,-0.78125 0.89844,-2.070312 0,-1.992188 -3.53516,-3.378907 -0.37109,-0.136718 -0.58593,-0.234375 -2.73438,-1.074218 -3.82813,-2.207031 -1.09375,-1.152344 -1.09375,-2.832031 0,-2.207031 1.5625,-3.613281 1.5625,-1.425782 4.04297,-1.425782 2.10937,0 3.59375,0.917969 1.48437,0.917969 2.16797,2.617188 l -2.20703,1.230468 q -0.41016,-1.230468 -1.36719,-1.875 -0.95703,-0.644531 -2.34375,-0.644531 -1.25,0 -2.07031,0.742188 -0.80078,0.722656 -0.80078,1.816406 0,1.074219 0.80078,1.777344 0.80078,0.703125 3.32031,1.542968 2.85156,0.996094 3.82812,2.167969 0.9961,1.171875 0.9961,3.242188 0,2.382812 -1.69922,3.808593 -1.69922,1.425782 -4.57031,1.425782 -2.20703,0 -3.8086,-0.996094 -1.58203,-1.015625 -2.28515,-2.851563 z"
       id="path1775" />
  </g>
</svg>
